<svg width="35" height="42" viewBox="0 0 35 42" fill="none" xmlns="http://www.w3.org/2000/svg">
<path d="M7 31.5C7 32.4625 7.7875 33.25 8.75 33.25H10.5V39.375C10.5 40.8275 11.6725 42 13.125 42C14.5775 42 15.75 40.8275 15.75 39.375V33.25H19.25V39.375C19.25 40.8275 20.4225 42 21.875 42C23.3275 42 24.5 40.8275 24.5 39.375V33.25H26.25C27.2125 33.25 28 32.4625 28 31.5V14H7V31.5ZM2.625 14C1.1725 14 0 15.1725 0 16.625V28.875C0 30.3275 1.1725 31.5 2.625 31.5C4.0775 31.5 5.25 30.3275 5.25 28.875V16.625C5.25 15.1725 4.0775 14 2.625 14ZM32.375 14C30.9225 14 29.75 15.1725 29.75 16.625V28.875C29.75 30.3275 30.9225 31.5 32.375 31.5C33.8275 31.5 35 30.3275 35 28.875V16.625C35 15.1725 33.8275 14 32.375 14ZM23.6775 3.78L25.9525 1.505C26.3025 1.155 26.3025 0.6125 25.9525 0.2625C25.6025 -0.0875 25.06 -0.0875 24.71 0.2625L22.12 2.8525C20.7375 2.1525 19.1625 1.75 17.5 1.75C15.82 1.75 14.245 2.1525 12.845 2.8525L10.2375 0.2625C9.8875 -0.0875 9.345 -0.0875 8.995 0.2625C8.645 0.6125 8.645 1.155 8.995 1.505L11.2875 3.7975C8.6975 5.705 7 8.7675 7 12.25H28C28 8.7675 26.3025 5.6875 23.6775 3.78Z" fill="#362252"/>
</svg>
