<svg width="54" height="44" viewBox="0 0 54 44" fill="none" xmlns="http://www.w3.org/2000/svg">
<path d="M53.6667 38.6667C53.6667 39.9485 53.1574 41.1779 52.251 42.0844C51.3446 42.9908 50.1152 43.5 48.8333 43.5H5.33333C4.05145 43.5 2.82208 42.9908 1.91565 42.0844C1.00922 41.1779 0.5 39.9485 0.5 38.6667V12.0833C0.5 10.8015 1.00922 9.57208 1.91565 8.66565C2.82208 7.75922 4.05145 7.25 5.33333 7.25H15L19.8333 0H34.3333L39.1667 7.25H48.8333C50.1152 7.25 51.3446 7.75922 52.251 8.66565C53.1574 9.57208 53.6667 10.8015 53.6667 12.0833V38.6667Z" fill="#362252"/>
</svg>
