<svg width="164" height="18" viewBox="0 0 164 18" fill="none" xmlns="http://www.w3.org/2000/svg">
<g clip-path="url(#clip0)">
<path d="M40.2499 0.288788L38.218 0.288788C37.7343 0.288788 37.444 0.673815 37.444 1.05884V10.7808C37.444 13.6685 35.6057 14.5348 32.8965 14.5348H32.2192C29.5101 14.5348 27.6717 13.5722 27.6717 10.7808V1.05884C27.6717 0.673815 27.2847 0.288788 26.8977 0.288788L24.8658 0.288788C24.3821 0.288788 24.0918 0.577558 24.0918 1.05884V10.877C24.0918 15.4973 26.8977 17.9038 32.0257 17.9038H32.9933C38.218 17.9038 41.0239 15.4973 41.0239 10.877V1.05884C41.1207 0.577558 40.7337 0.288788 40.2499 0.288788Z" fill="white"/>
<path d="M69.4705 0.288788L53.0221 0.288788C52.5383 0.288788 52.248 0.577558 52.248 1.05884V2.6952C52.248 3.17649 52.6351 3.46526 53.0221 3.46526L59.5047 3.46526V17.23C59.5047 17.615 59.8917 18 60.2787 18H62.2138C62.6976 18 62.9879 17.7112 62.9879 17.23V3.46526L69.3737 3.46526C69.8575 3.46526 70.1478 3.17649 70.1478 2.6952V1.05884C70.2445 0.577558 69.8575 0.288788 69.4705 0.288788Z" fill="white"/>
<path d="M75.5656 0L73.6305 0C73.1467 0 72.8564 0.385027 72.8564 0.770054V17.1337C72.8564 17.5187 73.2435 17.9037 73.6305 17.9037H75.5656C76.0494 17.9037 76.3396 17.5187 76.3396 17.1337V0.770054C76.4364 0.385027 76.0494 0 75.5656 0Z" fill="white"/>
<path d="M121.524 7.31551C118.815 6.73797 116.88 6.54545 116.88 4.90909C116.88 3.94652 116.88 2.8877 119.492 2.8877L123.072 2.8877C124.911 2.8877 125.975 3.65775 125.975 4.52406C125.975 5.29412 126.652 5.39037 127.233 5.39037H128.684C129.071 5.39037 129.458 5.1016 129.458 4.13904C129.458 2.31016 127.91 0.962567 125.975 0.385027C125.201 0.0962567 124.33 0 123.459 0L120.46 0C114.074 0 113.3 2.69519 113.3 5.1016C113.3 8.95187 117.557 9.52941 121.137 10.2995C123.846 10.877 126.072 11.4545 126.072 13.0909C126.072 13.861 125.781 14.8235 123.556 14.8235H119.396C116.88 14.8235 116.493 14.631 116.299 13.4759C116.203 12.7059 115.719 12.5134 115.235 12.5134H113.784C113.784 12.5134 113.01 12.5134 113.01 13.4759C113.01 16.0749 115.235 17.9037 118.138 17.9037H122.685C129.071 17.9037 129.845 15.2086 129.845 12.8021C129.652 8.95187 125.104 8.18182 121.524 7.31551Z" fill="white"/>
<path d="M163.322 3.17647H163.226L158.001 3.17647C155.292 3.17647 154.034 4.13904 154.034 7.02674V17.1337C154.034 17.5187 153.647 17.9037 153.26 17.9037H151.422C150.938 17.9037 150.647 17.5187 150.647 17.1337V7.21925C150.647 2.50267 152.776 0 157.904 0L163.419 0C163.806 0 164.096 0.28877 164.096 0.673797V2.40642C164 2.8877 163.709 3.17647 163.322 3.17647Z" fill="white"/>
<path d="M55.8276 14.9198H55.7309H50.1191C47.4099 14.9198 47.3132 14.1497 47.3132 11.0695V0.962558C47.3132 0.577532 46.9262 0.192505 46.5391 0.192505L44.7008 0.192505C44.217 0.192505 43.9268 0.577532 43.9268 0.962558V10.877V13.5722C43.9268 16.5561 45.6684 18.0962 49.7321 18.0962L55.9244 18.0962C56.3114 18.0962 56.6017 17.8075 56.6017 17.4224V15.6898C56.5049 15.2085 56.2147 14.9198 55.8276 14.9198Z" fill="white"/>
<path d="M90.9497 14.8235H90.853H85.2412C82.532 14.8235 82.4353 14.0535 82.4353 10.9733V0.770053C82.4353 0.385027 82.0482 0 81.6612 0L79.8229 0C79.3391 0 79.0488 0.385027 79.0488 0.770053V10.7807V13.4759C79.0488 16.4599 80.7904 18 84.8541 18L90.9497 18C91.3367 18 91.627 17.7112 91.627 17.3262V15.5936C91.627 15.1123 91.3367 14.8235 90.9497 14.8235Z" fill="white"/>
<path d="M103.334 0.0962524L102.947 0.0962524L101.689 0.0962524L101.302 0.0962524C97.0452 0.192509 94.2393 2.59893 94.2393 6.06417V17.2299C94.2393 18 94.6263 18 94.8198 18H96.9484C97.5289 18 97.7224 17.8075 97.7224 17.2299V12.6096L101.302 12.6096H103.334H106.817V17.2299C106.817 17.8075 107.011 18 107.591 18H109.72C109.817 18 110.301 18 110.301 17.2299V6.06417C110.301 2.40641 107.591 0.192509 103.334 0.0962524ZM103.334 9.33689H101.302L97.8192 9.33689V6.35294C97.8192 3.85026 99.5608 3.17647 101.302 3.17647H101.399H103.431H103.528C105.269 3.17647 106.817 4.23529 106.817 6.35294V9.33689H103.334Z" fill="white"/>
<path d="M137.586 3.17647L147.068 3.17647C147.455 3.17647 147.842 2.79144 147.842 2.31016V0.770054C147.842 0.385027 147.551 0 147.068 0L135.844 0C132.264 0 131.877 3.08021 131.877 5.67914V8.85561V8.95187V9.04813V12.2246C131.877 14.8235 132.264 17.9037 135.844 17.9037L147.068 17.9037C147.455 17.9037 147.842 17.5187 147.842 17.1337V15.4973C147.842 15.1123 147.551 14.631 147.068 14.631H137.586C135.07 14.631 135.36 12.8021 135.36 12.8021V10.492L146.777 10.492C147.164 10.492 147.551 10.107 147.551 9.72193V9.14439V8.85561V8.27808C147.551 7.89305 147.261 7.50802 146.777 7.50802L135.457 7.50802V5.29412C135.457 5.29412 135.167 3.17647 137.586 3.17647Z" fill="white"/>
<path d="M20.9959 0.288788L16.3516 0.288788C15.6743 0.288788 15.2873 0.577558 15.0938 1.1551L10.7398 13.6685L6.38584 1.1551C6.28909 0.577558 5.90206 0.288788 5.22478 0.288788L0.580531 0.288788C0.290266 0.288788 0 0.577558 0 0.866328L0 17.3262C0 17.7112 0.290266 18 0.580531 18H2.8059C3.19292 18 3.38643 17.7112 3.38643 17.3262L3.38643 5.10162C3.38643 4.81285 3.57994 4.62034 3.77345 5.00536L8.22419 16.4599C8.4177 16.9412 8.80472 17.23 9.2885 17.23H10.7398L12.1912 17.23C12.7717 17.23 13.0619 16.9412 13.2555 16.4599L17.7062 5.00536C17.8029 4.7166 18.0932 4.81285 18.0932 5.10162L18.0932 17.3262C18.0932 17.7112 18.3835 18 18.6737 18H20.8991C21.2861 18 21.4796 17.7112 21.4796 17.3262L21.4796 0.866328C21.5764 0.577558 21.2861 0.288788 20.9959 0.288788Z" fill="white"/>
</g>
<defs>
<clipPath id="clip0">
<rect width="164" height="18" fill="white"/>
</clipPath>
</defs>
</svg>
